<svg aria-hidden="true" style="width:0;height:0;position:absolute;overflow:hidden" xmlns="http://www.w3.org/2000/svg"><defs><symbol id="icon-logo" viewBox="0 0 41 32"><path fill="#ffe550" style="fill:var(--color1,#ffe550)" d="M14.151 6.456c1.011-1.982 3.838-1.982 4.849 0l1.28 2.51a2.724 2.724 0 0 0 1.998 1.453l2.774.441c2.197.35 3.072 3.049 1.498 4.625l-1.979 1.983a2.733 2.733 0 0 0-.765 2.356l.437 2.773c.347 2.2-1.941 3.868-3.923 2.859l-2.512-1.278a2.72 2.72 0 0 0-2.466 0l-2.512 1.278c-1.982 1.009-4.27-.659-3.923-2.859l.437-2.773a2.731 2.731 0 0 0-.765-2.356L6.6 15.485c-1.573-1.576-.699-4.276 1.498-4.625l2.774-.441a2.726 2.726 0 0 0 1.998-1.453l1.28-2.51z"/><path fill="#2c2c2c" style="fill:var(--color2,#2c2c2c)" d="m1.117 20.357-.021.005a31 31 0 0 1-.011.9c-.003.524-.004.868-.002 1.032 0 .157-.004.285-.01.384l.001.336c-.001.12-.008.219-.02.296l-.018.206c-.014.13-.042.201-.085.211-.092.022-.235-.049-.431-.212-.197-.17-.311-.319-.341-.447s-.038-1.06-.024-2.798c.021-1.74-.025-2.884-.14-3.432a.418.418 0 0 1 .014-.272c.035-.165.219-.321.55-.467.338-.147.843-.3 1.515-.459.679-.161 1.217-.251 1.615-.27.405-.021.623.032.653.159.02.085-.026.159-.138.223s-.211.117-.298.16c-.089.036-.204.082-.348.138-.145.049-.28.096-.403.14-.126.037-.288.091-.488.16-.193.068-.372.133-.536.194-.166.054-.39.133-.671.237s-.464.169-.547.197c.012.02.023.051.033.093.079.333.122 1.13.129 2.392a10.87 10.87 0 0 0 1.402-.365c.499-.163.805-.258.918-.284.269-.064.416-.039.443.075.052.22-.212.476-.792.77a8.682 8.682 0 0 1-1.951.697zM8.037 18.406a2.013 2.013 0 0 0-.277-.652c-.13-.201-.28-.334-.452-.398-.456.25-.787.728-.993 1.435-.201.698-.236 1.32-.107 1.865s.344.853.644.924c.485-.22.834-.668 1.047-1.347.218-.687.264-1.296.139-1.827zm-2.765.755c.117-.611.331-1.14.643-1.588.317-.456.685-.734 1.102-.833.424-.1.82-.003 1.188.291.366.287.611.689.733 1.206.121.51.121 1.063.001 1.66a3.784 3.784 0 0 1-.714 1.571c-.349.449-.767.731-1.255.846-.36.085-.7-.01-1.019-.286s-.539-.669-.659-1.179c-.122-.517-.129-1.08-.019-1.689zM12.841 17.269a2.013 2.013 0 0 0-.277-.652c-.13-.201-.28-.334-.452-.398-.456.25-.787.728-.993 1.435-.201.698-.236 1.32-.107 1.865s.344.853.644.924c.485-.219.834-.668 1.047-1.347.218-.687.264-1.296.139-1.827zm-2.765.756c.117-.611.331-1.14.643-1.588.317-.456.685-.734 1.102-.833.424-.1.82-.003 1.188.291.366.287.611.689.733 1.206.121.51.121 1.063.001 1.66a3.784 3.784 0 0 1-.714 1.571c-.349.449-.767.731-1.255.846-.36.085-.7-.01-1.019-.286s-.539-.669-.659-1.179c-.122-.517-.129-1.08-.019-1.689zM17.85 11.037c.113-.027.276.047.489.221.218.165.349.34.393.524s.079.729.107 1.635c.026.899.031 1.836.016 2.811-.02 2.188-.111 3.301-.274 3.34-.099.023-.223-.011-.371-.103-.143-.101-.226-.197-.248-.289s-.041-.282-.056-.57c-.525.872-1.046 1.369-1.562 1.491-.311.074-.627-.001-.949-.224-.314-.225-.508-.489-.58-.794-.104-.439-.11-.987-.019-1.644.096-.666.308-1.299.636-1.9s.743-.961 1.245-1.08.923.099 1.263.655c.005-1.586-.077-2.819-.248-3.699-.05-.212.002-.337.158-.374zm.068 5.491c-.09-.382-.234-.689-.43-.919-.189-.232-.376-.326-.559-.283-.304.072-.57.333-.8.784s-.382.943-.457 1.476c-.07.525-.063.964.021 1.319.03.127.1.219.211.275s.229.069.356.039c.276-.065.6-.351.972-.858.38-.509.612-1.057.697-1.645l.002-.135-.013-.053zM24.685 15.892c.137.581-.009 1.131-.438 1.651-.431.513-.986.85-1.664 1.011-.671.159-1.267.117-1.788-.127-.522-.25-.82-.531-.893-.843-.05-.212-.012-.334.115-.364.113-.027.376.091.788.352.156.09.352.163.589.22.244.054.486.053.727-.004a2.373 2.373 0 0 0 1.224-.693c.328-.347.457-.669.387-.966-.045-.191-.23-.405-.555-.643s-.674-.45-1.047-.638c-.368-.197-.715-.418-1.041-.662s-.511-.455-.552-.632-.051-.373-.027-.588c.024-.215.067-.379.13-.491.204-.37.565-.751 1.084-1.143.526-.394.987-.637 1.383-.731.205-.048.394-.022.567.079s.277.226.313.375c.017.071-.044.145-.182.223s-.351.188-.638.33a5.259 5.259 0 0 0-.74.422c-.739.504-1.074.901-1.006 1.191.037.156.553.493 1.549 1.013.383.201.746.455 1.087.763.347.299.556.598.626.895zM27.121 16.426c.032.135.125.183.281.147.269-.064.576-.215.923-.454.352-.248.549-.377.591-.387.127-.03.207.022.239.157.049.205-.107.493-.468.862-.353.368-.703.593-1.049.674-.339.08-.644.055-.913-.076-.271-.138-.43-.306-.477-.504s-.064-.46-.051-.784c.011-.332.035-.767.072-1.307.042-.548.07-1 .083-1.354-.314.156-.527.248-.64.275s-.24-.003-.379-.09c-.134-.095-.214-.196-.239-.302-.04-.17.381-.441 1.263-.815a7.73 7.73 0 0 0-.178-1.607c-.05-.212-.005-.335.137-.369.12-.028.287.014.501.128.212.107.34.256.386.447s.065.542.058 1.052c.394-.131.712-.224.952-.281.424-.1.658-.058.701.126.025.106-.071.222-.287.348-.209.124-.664.348-1.364.67-.016.594-.052 1.28-.107 2.055-.057.769-.067 1.231-.03 1.387zM31.858 10.864c.318-.075.65.018.995.28.344.255.547.514.609.776.06.255.034.538-.079.849.11.086.174.168.193.246.047.198.081.549.103 1.052.029.502.051.829.065.983a3.387 3.387 0 0 1 .05.638c.014.184-.029.287-.128.311-.127.03-.259-.055-.396-.254a3.224 3.224 0 0 1-.344-.838c-.44.949-.928 1.487-1.465 1.614-.325.077-.679.015-1.063-.186-.378-.21-.602-.463-.672-.761-.1-.425-.069-.986.095-1.682.162-.704.432-1.358.812-1.964s.788-.96 1.226-1.064zm.93 1.754c-.156-.659-.364-.957-.626-.895-.276.065-.55.34-.824.823-.275.476-.482.993-.619 1.548s-.171.979-.103 1.269a.37.37 0 0 0 .219.262.603.603 0 0 0 .375.023c.332-.079.654-.39.965-.935.31-.552.47-1.169.48-1.852-.004-.111.041-.189.135-.234l-.002-.011z"/><path fill="#bbf330" style="fill:var(--color3,#bbf330)" d="M30.777 19.973a.917.917 0 0 0-.642.602c-1.907 5.65-7.248 9.719-13.543 9.719a14.241 14.241 0 0 1-9.847-3.935.912.912 0 0 0-.846-.232c-.639.158-.881.934-.407 1.392a15.935 15.935 0 0 0 11.099 4.48c7.082 0 13.089-4.605 15.192-10.986.206-.626-.368-1.199-1.007-1.041zM1.868 14.15a.908.908 0 0 0 .666-.725c1.212-6.664 7.044-11.72 14.059-11.72 4.562 0 8.623 2.137 11.239 5.464.22.279.579.414.924.328.584-.144.848-.825.479-1.301-2.926-3.771-7.5-6.198-12.641-6.198C8.708-.002 2.155 5.709.841 13.223c-.104.592.445 1.07 1.028.926zM40.64 5.331c-3.779 7.241-5.439 2.465-10.759 5.271.532-8.406 6.167-3.291 10.759-5.271z"/></symbol><symbol id="open-menu" viewBox="0 0 43 32"><path d="M.592 3.556a2.073 2.073 0 0 1 2.074-2.074h37.333a2.075 2.075 0 0 1 0 4.148H2.666A2.073 2.073 0 0 1 .592 3.556zm0 12.51a2.073 2.073 0 0 1 2.074-2.074h37.333a2.075 2.075 0 0 1 0 4.148H2.666a2.075 2.075 0 0 1-2.074-2.074zm2.074 10.437a2.073 2.073 0 0 0-1.467 3.541c.389.389.917.607 1.467.607h37.333A2.075 2.075 0 1 0 40 26.503H2.667z"/></symbol><symbol id="close-menu" viewBox="0 0 32 32"><path d="M19.141 16.123 29.817 5.455a2.196 2.196 0 0 0-3.098-3.095L16.043 12.918 5.301 2.184a2.202 2.202 0 0 0-2.983.115 2.193 2.193 0 0 0-.115 2.98l10.72 10.844L2.422 26.484a2.203 2.203 0 0 0-.767 1.582c-.012.302.039.604.15.885.11.282.278.538.492.751s.47.381.752.492a2.203 2.203 0 0 0 2.47-.615l10.479-10.471 10.413 10.405a2.202 2.202 0 0 0 2.983-.115 2.194 2.194 0 0 0 .115-2.979L19.14 16.124z"/></symbol><symbol id="icon-click" viewBox="0 0 24 32"><path fill="#7eb101" style="fill:var(--color4,#7eb101)" d="M11.586.368c2.231 0 4.138.779 5.72 2.336s2.372 3.451 2.372 5.683c0 1.275-.276 2.477-.828 3.605s-1.33 2.084-2.336 2.869h-1.251v-1.839c.711-.564 1.257-1.251 1.637-2.06s.57-1.667.57-2.575c0-1.618-.576-2.992-1.729-4.12s-2.538-1.692-4.156-1.692c-1.618 0-3.004.564-4.156 1.692S5.7 6.768 5.7 8.387c0 .907.19 1.766.57 2.575s.926 1.496 1.637 2.06v2.648c-1.373-.711-2.452-1.717-3.237-3.016S3.493 9.932 3.493 8.387c0-2.231.791-4.126 2.372-5.683S9.353.368 11.585.368zm-1.397 30.896a3.032 3.032 0 0 1-2.133-.883L.479 22.804l2.06-2.133c.343-.343.73-.607 1.159-.791s.877-.215 1.343-.092l2.869.662V8.459c0-1.03.356-1.9 1.067-2.611s1.582-1.067 2.611-1.067c1.03 0 1.9.356 2.612 1.067s1.067 1.582 1.067 2.611v6.326h.956c.123 0 .233.024.331.073s.208.098.331.147l5.444 2.648c.589.27 1.024.705 1.306 1.306s.362 1.22.239 1.857l-1.324 8.018c-.123.711-.466 1.293-1.03 1.747s-1.202.68-1.913.68h-9.416zm-.295-2.207H20.23l1.582-9.159-6.731-3.347h-2.023V8.459c0-.441-.135-.797-.405-1.067s-.625-.405-1.067-.405-.797.135-1.067.405c-.27.27-.405.625-.405 1.067v14.676L4.45 21.921l-.846.846 6.29 6.29zm10.336 0z"/></symbol><symbol id="icon-rocket" viewBox="0 0 32 32"><path fill="#7eb101" style="fill:var(--color4,#7eb101)" d="m4.838 13.295 4.038 1.714c.457-.914.946-1.816 1.467-2.705s1.073-1.74 1.657-2.552l-3.01-.61-4.152 4.152zm5.867 3.086 5.067 5.067c1.448-.66 2.806-1.41 4.076-2.248s2.298-1.651 3.086-2.438c2.057-2.057 3.568-4.165 4.533-6.324s1.486-4.597 1.562-7.314c-2.718.076-5.156.597-7.314 1.562s-4.267 2.476-6.324 4.533c-.787.787-1.6 1.816-2.438 3.086s-1.587 2.629-2.248 4.076zm8.724-3.657c-.508-.508-.762-1.137-.762-1.886s.254-1.378.762-1.886 1.136-.762 1.886-.762c.749 0 1.378.254 1.886.762s.762 1.136.762 1.886c0 .749-.254 1.378-.762 1.886s-1.136.762-1.886.762-1.378-.254-1.886-.762zm-.572 14.59 4.152-4.152-.61-3.009c-.813.584-1.664 1.136-2.552 1.657s-1.791 1.009-2.705 1.467l1.714 4.038zM31.276.876c.229 3.454-.203 6.603-1.295 9.448s-2.895 5.524-5.41 8.038l-.152.152.838 4.191c.076.381.057.749-.057 1.105s-.311.673-.59.952l-6.514 6.552-3.238-7.543-6.476-6.476-7.543-3.238 6.552-6.514c.279-.279.597-.476.952-.59s.724-.133 1.105-.057l4.19.838c.025-.025.051-.044.076-.057s.051-.032.076-.057c2.514-2.514 5.194-4.324 8.038-5.429S27.822.648 31.276.877zM3.39 21.905c.889-.889 1.975-1.34 3.257-1.352s2.368.425 3.257 1.314c.889.889 1.327 1.974 1.314 3.257s-.463 2.368-1.352 3.257c-.66.66-1.683 1.206-3.067 1.638s-3.46.838-6.229 1.219c.381-2.768.781-4.851 1.2-6.248s.959-2.425 1.619-3.086zm1.6 1.638c-.356.381-.673.978-.952 1.791s-.521 1.854-.724 3.124c1.27-.203 2.311-.444 3.124-.724s1.41-.597 1.79-.952c.483-.432.73-.971.743-1.619s-.21-1.213-.667-1.695c-.483-.457-1.048-.679-1.695-.667s-1.187.26-1.619.743z"/></symbol><symbol id="icon-star" viewBox="0 0 34 32"><path fill="#ffe550" style="fill:var(--color1,#ffe550)" d="M15.421 1.037c.584-1.383 2.575-1.383 3.159 0l3.449 8.164a1.71 1.71 0 0 0 1.443 1.032l8.952.707c1.517.12 2.132 1.983.976 2.958l-6.821 5.752a1.67 1.67 0 0 0-.551 1.67l2.084 8.6c.353 1.457-1.257 2.609-2.556 1.828l-7.664-4.609a1.734 1.734 0 0 0-1.783 0l-7.664 4.609c-1.299.781-2.909-.371-2.556-1.828l2.084-8.6a1.67 1.67 0 0 0-.551-1.67L.601 13.898c-1.156-.975-.541-2.838.976-2.958l8.952-.707a1.71 1.71 0 0 0 1.443-1.032l3.449-8.164z"/></symbol><symbol id="icon-arrow-r" viewBox="0 0 38 32"><path fill="#fefefe" style="fill:var(--color1,#fefefe)" d="M38.4 6.4v19.2A6.4 6.4 0 0 1 32 32H6.4A6.4 6.4 0 0 1 0 25.6V6.4A6.4 6.4 0 0 1 6.4 0H32a6.4 6.4 0 0 1 6.4 6.4z"/><path d="M27.64 15.276 16.494 4.656a1.001 1.001 0 0 0-1.38 0l-.012.012a.936.936 0 0 0-.287.667.908.908 0 0 0 .287.667l10.496 10-10.496 9.996a.936.936 0 0 0-.287.667.908.908 0 0 0 .287.667l.012.012a1.001 1.001 0 0 0 1.38 0l11.146-10.62a.994.994 0 0 0 .31-.724 1.01 1.01 0 0 0-.31-.724z"/></symbol><symbol id="icon-arrow-l" viewBox="0 0 38 32"><path fill="#fefefe" style="fill:var(--color1,#fefefe)" d="M0 25.6V6.4A6.4 6.4 0 0 1 6.4 0H32a6.4 6.4 0 0 1 6.4 6.4v19.2A6.4 6.4 0 0 1 32 32H6.4A6.4 6.4 0 0 1 0 25.6z"/><path d="m10.76 16.724 11.146 10.62a1.001 1.001 0 0 0 1.38 0l.012-.012a.936.936 0 0 0 .287-.667.908.908 0 0 0-.287-.667l-10.496-10 10.496-9.996a.936.936 0 0 0 .287-.667.908.908 0 0 0-.287-.667l-.012-.012a1.001 1.001 0 0 0-1.38 0L10.76 15.276a.994.994 0 0 0-.31.724 1.01 1.01 0 0 0 .31.724z"/></symbol><symbol id="icon-up" viewBox="0 0 20 32"><path d="m10.186 5.414-6.361 6.361A2.243 2.243 0 1 1 .653 8.603L8.726.538l.087-.071L8.9.404l.095-.063.095-.055.11-.055.087-.039.205-.079.095-.032.055-.016.103-.024.11-.016.103-.016.11-.008h.221l.11.008.103.016.11.016.103.024.118.032.095.032.189.079.118.055.079.047.189.126.174.142.079.071 7.947 7.955a2.243 2.243 0 1 1-3.172 3.172L10.17 5.415z"/><path d="M10.186 15.199 3.825 21.56a2.243 2.243 0 1 1-3.172-3.172l8.073-8.065.087-.071.087-.063.095-.063.095-.055.11-.055.087-.039.205-.079.095-.032.055-.016.103-.024.11-.016.103-.016.11-.008h.221l.11.008.103.016.11.016.103.024.118.032.095.032.189.079.118.055.079.047.189.126.174.142.079.071 7.947 7.955a2.243 2.243 0 1 1-3.172 3.172L10.17 15.2z"/><path d="m10.186 24.984-6.361 6.361a2.243 2.243 0 1 1-3.172-3.172l8.073-8.065.087-.071.087-.063.095-.063.095-.055.11-.055.087-.039.205-.079.095-.032.055-.016.103-.024.11-.016.103-.016.11-.008h.221l.11.008.103.016.11.016.103.024.118.032.095.032.189.079.118.055.079.047.189.126.174.142.079.071 7.947 7.955a2.243 2.243 0 1 1-3.172 3.172l-6.361-6.361z"/></symbol><symbol id="close" viewBox="0 0 24 26"><path d="m13.178 12.046 4.004-4a.823.823 0 0 0-1.162-1.161l-4.003 3.96-4.029-4.026a.824.824 0 0 0-1.161 1.16l4.02 4.067-3.938 3.885a.823.823 0 1 0 1.162 1.161L12 13.166l3.905 3.901a.824.824 0 0 0 1.161-1.16l-3.888-3.86Z" fill="#2C2C2C"/><defs><filter id="a" width="32" height="32" x="-4" y="0" color-interpolation-filters="sRGB" filterUnits="userSpaceOnUse"><feFlood flood-opacity="0" result="BackgroundImageFix"/><feColorMatrix in="SourceAlpha" result="hardAlpha" values="0 0 0 0 0 0 0 0 0 0 0 0 0 0 0 0 0 0 127 0"/><feOffset dy="4"/><feGaussianBlur stdDeviation="2"/><feComposite in2="hardAlpha" operator="out"/><feColorMatrix values="0 0 0 0 0 0 0 0 0 0 0 0 0 0 0 0 0 0 0.06 0"/><feBlend in2="BackgroundImageFix" result="effect1_dropShadow_3909_6"/><feBlend in="SourceGraphic" in2="effect1_dropShadow_3909_6" result="shape"/></filter><filter id="b" width="12.759" height="11.759" x="6.621" y="6.621" color-interpolation-filters="sRGB" filterUnits="userSpaceOnUse"><feFlood flood-opacity="0" result="BackgroundImageFix"/><feBlend in="SourceGraphic" in2="BackgroundImageFix" result="shape"/><feColorMatrix in="SourceAlpha" result="hardAlpha" values="0 0 0 0 0 0 0 0 0 0 0 0 0 0 0 0 0 0 127 0"/><feOffset dx="2" dy="1"/><feGaussianBlur stdDeviation="2"/><feComposite in2="hardAlpha" k2="-1" k3="1" operator="arithmetic"/><feColorMatrix values="0 0 0 0 0.239216 0 0 0 0 0.239216 0 0 0 0 0.239216 0 0 0 0.1 0">&gt;&gt;&gt;&gt;&gt;&gt;&gt; main</feColorMatrix></filter></defs></symbol></defs></svg>