<svg aria-hidden="true" style="position: absolute; width: 0; height: 0; overflow: hidden;" version="1.1"
    xmlns="http://www.w3.org/2000/svg" xmlns:xlink="http://www.w3.org/1999/xlink">
    <defs>
        <!-- -------------------Header ----------------------->

        <symbol id="icon-logo" viewBox="0 0 41 32">
            <path fill="#ffe550" style="fill: var(--color1, #ffe550)"
                d="M14.121 6.486c1.014-1.989 3.864-1.989 4.878 0l1.263 2.476c0.397 0.778 1.143 1.32 2.008 1.458l2.759 0.439c2.203 0.351 3.082 3.042 1.508 4.62l-1.986 1.991c-0.615 0.617-0.899 1.489-0.764 2.349l0.436 2.769c0.347 2.202-1.957 3.868-3.947 2.854l-2.472-1.259c-0.782-0.398-1.707-0.398-2.489 0l-2.472 1.259c-1.991 1.014-4.295-0.652-3.947-2.854l0.436-2.769c0.135-0.859-0.148-1.732-0.764-2.349l-1.986-1.991c-1.574-1.577-0.695-4.269 1.508-4.62l2.759-0.439c0.865-0.138 1.611-0.68 2.008-1.458l1.263-2.476z">
            </path>
            <path fill="#2c2c2c" style="fill: var(--color2, #2c2c2c)"
                d="M1.118 20.356l-0.021 0.005c0.003 0.074-0.001 0.374-0.012 0.9-0.003 0.524-0.005 0.869-0.003 1.033-0 0.157-0.004 0.285-0.010 0.384 0 0.097 0.001 0.209 0.001 0.336-0.002 0.12-0.008 0.219-0.020 0.296-0.006 0.069-0.012 0.138-0.019 0.206-0.014 0.13-0.042 0.201-0.085 0.211-0.092 0.022-0.236-0.049-0.432-0.212-0.198-0.17-0.312-0.319-0.342-0.446s-0.037-1.061-0.021-2.8c0.023-1.741-0.022-2.885-0.137-3.434-0.025-0.106-0.020-0.197 0.014-0.273 0.036-0.166 0.22-0.321 0.553-0.467 0.34-0.148 0.847-0.301 1.522-0.461 0.682-0.161 1.222-0.252 1.623-0.272 0.407-0.022 0.626 0.031 0.656 0.159 0.020 0.085-0.026 0.159-0.138 0.223s-0.212 0.117-0.299 0.161c-0.089 0.036-0.205 0.082-0.35 0.139-0.146 0.049-0.281 0.096-0.405 0.141-0.126 0.037-0.29 0.091-0.49 0.161-0.194 0.068-0.373 0.133-0.539 0.195-0.167 0.055-0.392 0.134-0.675 0.238s-0.466 0.17-0.549 0.197c0.012 0.020 0.023 0.051 0.033 0.093 0.079 0.333 0.121 1.131 0.127 2.393 0.445-0.083 0.915-0.205 1.409-0.367 0.501-0.163 0.809-0.259 0.922-0.286 0.27-0.064 0.418-0.039 0.445 0.074 0.052 0.22-0.213 0.477-0.796 0.772-0.575 0.293-1.229 0.526-1.96 0.699z">
            </path>
            <path fill="#2c2c2c" style="fill: var(--color2, #2c2c2c)"
                d="M8.071 18.397c-0.057-0.241-0.15-0.458-0.278-0.652-0.13-0.201-0.281-0.334-0.454-0.397-0.458 0.251-0.791 0.729-0.999 1.437-0.202 0.699-0.239 1.32-0.11 1.866s0.344 0.853 0.646 0.924c0.488-0.22 0.839-0.67 1.053-1.349 0.22-0.688 0.267-1.297 0.141-1.828zM5.292 19.155c0.118-0.611 0.334-1.141 0.648-1.589 0.319-0.457 0.688-0.735 1.107-0.834 0.426-0.101 0.824-0.004 1.193 0.29 0.368 0.287 0.613 0.689 0.735 1.206 0.121 0.51 0.12 1.063-0.001 1.661-0.123 0.59-0.363 1.114-0.719 1.573-0.351 0.45-0.771 0.732-1.261 0.848-0.362 0.086-0.703-0.009-1.023-0.285s-0.54-0.669-0.661-1.179c-0.122-0.517-0.128-1.080-0.017-1.69z">
            </path>
            <path fill="#2c2c2c" style="fill: var(--color2, #2c2c2c)"
                d="M12.896 17.255c-0.057-0.241-0.15-0.458-0.278-0.652-0.13-0.201-0.281-0.334-0.454-0.397-0.458 0.251-0.791 0.729-0.999 1.437-0.202 0.699-0.239 1.32-0.11 1.866s0.344 0.853 0.646 0.924c0.488-0.22 0.839-0.67 1.053-1.349 0.22-0.688 0.267-1.297 0.141-1.828zM10.118 18.013c0.118-0.611 0.334-1.141 0.648-1.589 0.319-0.457 0.688-0.735 1.107-0.834 0.426-0.101 0.824-0.004 1.193 0.29 0.368 0.287 0.613 0.689 0.735 1.206 0.121 0.51 0.12 1.064-0.001 1.661-0.123 0.59-0.363 1.114-0.719 1.573-0.351 0.45-0.771 0.732-1.261 0.848-0.362 0.086-0.703-0.009-1.023-0.285s-0.54-0.669-0.661-1.179c-0.122-0.517-0.128-1.080-0.017-1.69z">
            </path>
            <path fill="#2c2c2c" style="fill: var(--color2, #2c2c2c)"
                d="M17.933 11.014c0.114-0.027 0.277 0.047 0.491 0.22 0.219 0.165 0.35 0.34 0.394 0.524s0.079 0.729 0.106 1.635c0.025 0.899 0.029 1.837 0.013 2.813-0.022 2.189-0.115 3.303-0.278 3.342-0.099 0.023-0.224-0.011-0.373-0.102-0.144-0.101-0.227-0.197-0.248-0.289s-0.040-0.282-0.056-0.57c-0.528 0.873-1.052 1.371-1.57 1.493-0.312 0.074-0.63-0.001-0.953-0.223-0.315-0.225-0.509-0.489-0.581-0.794-0.104-0.439-0.11-0.987-0.018-1.645 0.097-0.666 0.311-1.3 0.641-1.902s0.747-0.962 1.251-1.081c0.504-0.119 0.927 0.099 1.268 0.654 0.007-1.587-0.075-2.821-0.245-3.7-0.050-0.213 0.003-0.337 0.159-0.374zM17.995 16.508c-0.090-0.382-0.234-0.689-0.431-0.919-0.19-0.232-0.377-0.326-0.562-0.282-0.305 0.072-0.573 0.334-0.804 0.785s-0.384 0.944-0.46 1.478c-0.071 0.525-0.064 0.965 0.020 1.319 0.030 0.128 0.101 0.219 0.211 0.275s0.23 0.069 0.358 0.039c0.277-0.066 0.603-0.352 0.978-0.86 0.382-0.509 0.616-1.058 0.701-1.647l0.002-0.135-0.013-0.053z">
            </path>
            <path fill="#2c2c2c" style="fill: var(--color2, #2c2c2c)"
                d="M24.793 15.864c0.137 0.581-0.010 1.132-0.441 1.653-0.433 0.514-0.991 0.852-1.672 1.013-0.674 0.16-1.273 0.118-1.795-0.125-0.524-0.25-0.823-0.531-0.896-0.842-0.050-0.212-0.011-0.334 0.116-0.364 0.114-0.027 0.377 0.090 0.792 0.351 0.156 0.090 0.353 0.163 0.592 0.219 0.245 0.054 0.488 0.053 0.73-0.004 0.497-0.118 0.907-0.349 1.23-0.695 0.33-0.347 0.46-0.67 0.39-0.967-0.045-0.191-0.231-0.405-0.557-0.642s-0.676-0.45-1.050-0.638c-0.369-0.197-0.717-0.417-1.045-0.661s-0.512-0.455-0.554-0.632c-0.042-0.177-0.051-0.373-0.027-0.588s0.068-0.379 0.131-0.491c0.205-0.37 0.568-0.752 1.090-1.144 0.529-0.394 0.992-0.639 1.39-0.733 0.206-0.049 0.396-0.023 0.57 0.078s0.278 0.226 0.313 0.375c0.017 0.071-0.044 0.145-0.183 0.223s-0.353 0.188-0.641 0.331c-0.283 0.134-0.531 0.275-0.744 0.423-0.743 0.505-1.080 0.902-1.011 1.193 0.037 0.156 0.555 0.493 1.555 1.012 0.385 0.201 0.749 0.455 1.091 0.763 0.348 0.299 0.557 0.597 0.628 0.895z">
            </path>
            <path fill="#2c2c2c" style="fill: var(--color2, #2c2c2c)"
                d="M27.238 16.396c0.032 0.135 0.126 0.183 0.282 0.146 0.27-0.064 0.579-0.215 0.927-0.455 0.354-0.248 0.552-0.377 0.594-0.387 0.128-0.030 0.208 0.022 0.239 0.156 0.049 0.205-0.108 0.493-0.471 0.863-0.355 0.368-0.707 0.594-1.055 0.676-0.341 0.081-0.647 0.056-0.917-0.075-0.272-0.137-0.432-0.305-0.479-0.504s-0.064-0.46-0.051-0.785c0.012-0.332 0.036-0.768 0.073-1.308 0.043-0.549 0.071-1 0.084-1.355-0.315 0.157-0.53 0.249-0.643 0.276s-0.241-0.003-0.381-0.089c-0.135-0.095-0.215-0.196-0.24-0.302-0.040-0.17 0.383-0.442 1.269-0.816-0.011-0.618-0.070-1.154-0.178-1.607-0.050-0.213-0.004-0.335 0.138-0.369 0.121-0.029 0.288 0.014 0.503 0.128 0.213 0.107 0.342 0.256 0.387 0.447s0.064 0.542 0.058 1.052c0.396-0.131 0.715-0.225 0.957-0.282 0.426-0.101 0.661-0.059 0.704 0.125 0.025 0.106-0.071 0.223-0.289 0.349-0.21 0.125-0.667 0.349-1.371 0.672-0.017 0.595-0.053 1.28-0.11 2.057-0.058 0.769-0.069 1.232-0.032 1.387z">
            </path>
            <path fill="#2c2c2c" style="fill: var(--color2, #2c2c2c)"
                d="M32.002 10.826c0.319-0.076 0.653 0.018 0.999 0.28 0.345 0.255 0.549 0.513 0.611 0.775 0.060 0.255 0.033 0.538-0.080 0.849 0.11 0.086 0.175 0.168 0.193 0.246 0.047 0.198 0.081 0.549 0.103 1.053 0.029 0.502 0.050 0.83 0.064 0.983 0.021 0.152 0.035 0.276 0.043 0.371 0.006 0.088 0.008 0.178 0.007 0.268 0.013 0.184-0.030 0.287-0.129 0.311-0.128 0.030-0.26-0.054-0.397-0.254-0.132-0.208-0.246-0.488-0.344-0.838-0.443 0.95-0.934 1.489-1.473 1.616-0.327 0.077-0.682 0.016-1.067-0.185-0.379-0.209-0.604-0.463-0.675-0.76-0.101-0.425-0.068-0.986 0.097-1.683 0.163-0.704 0.436-1.36 0.817-1.966s0.792-0.962 1.232-1.066zM32.934 12.58c-0.156-0.659-0.365-0.957-0.628-0.895-0.277 0.066-0.553 0.34-0.828 0.824-0.277 0.477-0.485 0.994-0.623 1.55s-0.173 0.98-0.105 1.27c0.028 0.12 0.102 0.208 0.219 0.262 0.116 0.047 0.242 0.055 0.377 0.023 0.334-0.079 0.657-0.391 0.971-0.937 0.312-0.552 0.473-1.17 0.484-1.853-0.004-0.111 0.041-0.189 0.136-0.234l-0.002-0.011z">
            </path>
            <path fill="#bbf330" style="fill: var(--color3, #bbf330)"
                d="M30.75 19.975c-0.304 0.075-0.544 0.306-0.644 0.603-1.907 5.652-7.247 9.717-13.529 9.717-3.81 0-7.274-1.495-9.835-3.933-0.227-0.216-0.548-0.309-0.853-0.234-0.64 0.159-0.883 0.932-0.409 1.39 2.875 2.776 6.787 4.483 11.097 4.483 7.079 0 13.084-4.605 15.186-10.986 0.206-0.626-0.372-1.198-1.013-1.040z">
            </path>
            <path fill="#bbf330" style="fill: var(--color3, #bbf330)"
                d="M1.865 14.148c0.347-0.086 0.604-0.374 0.668-0.725 1.212-6.669 7.044-11.718 14.045-11.718 4.553 0 8.612 2.135 11.227 5.463 0.221 0.281 0.583 0.416 0.93 0.33 0.585-0.145 0.85-0.823 0.481-1.298-2.925-3.772-7.498-6.2-12.638-6.2-7.883 0-14.433 5.71-15.747 13.224-0.104 0.593 0.448 1.070 1.034 0.925z">
            </path>
            <path fill="#bbf330" style="fill: var(--color3, #bbf330)"
                d="M40.615 5.331c-3.778 7.241-5.437 2.465-10.755 5.271 0.532-8.406 6.165-3.291 10.755-5.271z"></path>
        </symbol>

        <symbol id="icon-menu" viewBox="0 0 43 32">
            <path
                d="M0.592 3.556c0-0.55 0.219-1.078 0.607-1.467s0.917-0.607 1.467-0.607h37.333c0.55 0 1.078 0.219 1.466 0.607s0.607 0.917 0.607 1.467c0 0.55-0.218 1.078-0.607 1.467s-0.916 0.607-1.466 0.607h-37.333c-0.55 0-1.078-0.219-1.467-0.607s-0.607-0.917-0.607-1.467zM0.592 16.066c0-0.55 0.219-1.078 0.607-1.467s0.917-0.607 1.467-0.607h37.333c0.55 0 1.078 0.219 1.466 0.607s0.607 0.916 0.607 1.467c0 0.55-0.218 1.078-0.607 1.467s-0.916 0.607-1.466 0.607h-37.333c-0.55 0-1.078-0.218-1.467-0.607s-0.607-0.916-0.607-1.467zM2.666 26.503c-0.55 0-1.078 0.219-1.467 0.607s-0.607 0.917-0.607 1.467 0.219 1.078 0.607 1.467c0.389 0.389 0.917 0.607 1.467 0.607h37.333c0.55 0 1.078-0.218 1.467-0.607s0.607-0.917 0.607-1.467c0-0.55-0.218-1.078-0.607-1.467s-0.916-0.607-1.466-0.607h-37.333z">
            </path>
        </symbol>


        <symbol id="icon-cross" viewBox="0 0 32 32">
            <path
                d="M19.141 16.123l10.676-10.668c0.36-0.42 0.548-0.96 0.527-1.513s-0.251-1.077-0.642-1.467c-0.391-0.391-0.915-0.62-1.469-0.641s-1.093 0.167-1.514 0.526l-10.676 10.558-10.742-10.734c-0.42-0.36-0.961-0.548-1.514-0.526s-1.077 0.25-1.469 0.641c-0.391 0.391-0.62 0.915-0.642 1.467s0.167 1.093 0.527 1.513l10.72 10.844-10.501 10.361c-0.23 0.197-0.417 0.439-0.549 0.711s-0.206 0.569-0.218 0.871 0.039 0.604 0.15 0.885c0.11 0.282 0.278 0.538 0.492 0.751s0.47 0.381 0.752 0.492c0.282 0.11 0.584 0.161 0.886 0.15s0.599-0.086 0.872-0.217c0.273-0.132 0.515-0.318 0.712-0.548l10.479-10.471 10.413 10.405c0.42 0.359 0.961 0.547 1.514 0.526s1.077-0.25 1.469-0.641c0.391-0.391 0.621-0.915 0.642-1.467s-0.167-1.093-0.527-1.512l-10.369-10.295z">
            </path>
        </symbol>


        <!------------------ Offerings--------------------- -->




        <symbol id="icon-click" viewBox="0 0 24 32">
            <path fill="#7eb101" style="fill: var(--color4, #7eb101)"
                d="M11.586 0.368c2.231 0 4.138 0.779 5.72 2.336s2.372 3.451 2.372 5.683c0 1.275-0.276 2.477-0.828 3.605s-1.33 2.084-2.336 2.869h-1.251v-1.839c0.711-0.564 1.257-1.251 1.637-2.060s0.57-1.667 0.57-2.575c0-1.618-0.576-2.992-1.729-4.12s-2.538-1.692-4.156-1.692c-1.618 0-3.004 0.564-4.156 1.692s-1.729 2.501-1.729 4.12c0 0.907 0.19 1.766 0.57 2.575s0.926 1.496 1.637 2.060v2.648c-1.373-0.711-2.452-1.717-3.237-3.016s-1.177-2.722-1.177-4.267c0-2.231 0.791-4.126 2.372-5.683s3.488-2.336 5.72-2.336zM10.189 31.264c-0.417 0-0.809-0.080-1.177-0.239s-0.687-0.374-0.956-0.644l-7.577-7.577 2.060-2.133c0.343-0.343 0.73-0.607 1.159-0.791s0.877-0.215 1.343-0.092l2.869 0.662v-11.991c0-1.030 0.356-1.9 1.067-2.611s1.582-1.067 2.611-1.067c1.030 0 1.9 0.356 2.612 1.067s1.067 1.582 1.067 2.611v6.326h0.956c0.123 0 0.233 0.024 0.331 0.073s0.208 0.098 0.331 0.147l5.444 2.648c0.589 0.27 1.024 0.705 1.306 1.306s0.362 1.22 0.239 1.857l-1.324 8.018c-0.123 0.711-0.466 1.293-1.030 1.747s-1.202 0.68-1.913 0.68h-9.416zM9.894 29.057h10.336l1.582-9.159-6.731-3.347h-2.023v-8.092c0-0.441-0.135-0.797-0.405-1.067s-0.625-0.405-1.067-0.405-0.797 0.135-1.067 0.405c-0.27 0.27-0.405 0.625-0.405 1.067v14.676l-5.664-1.214-0.846 0.846 6.29 6.29zM20.23 29.057v0z">
            </path>
        </symbol>


        <symbol id="icon-rocket" viewBox="0 0 32 32">
            <path fill="#7eb101" style="fill: var(--color4, #7eb101)"
                d="M4.838 13.295l4.038 1.714c0.457-0.914 0.946-1.816 1.467-2.705s1.073-1.74 1.657-2.552l-3.010-0.61-4.152 4.152zM10.705 16.381l5.067 5.067c1.448-0.66 2.806-1.41 4.076-2.248s2.298-1.651 3.086-2.438c2.057-2.057 3.568-4.165 4.533-6.324s1.486-4.597 1.562-7.314c-2.718 0.076-5.156 0.597-7.314 1.562s-4.267 2.476-6.324 4.533c-0.787 0.787-1.6 1.816-2.438 3.086s-1.587 2.629-2.248 4.076zM19.429 12.724c-0.508-0.508-0.762-1.137-0.762-1.886s0.254-1.378 0.762-1.886 1.136-0.762 1.886-0.762c0.749 0 1.378 0.254 1.886 0.762s0.762 1.136 0.762 1.886c0 0.749-0.254 1.378-0.762 1.886s-1.136 0.762-1.886 0.762-1.378-0.254-1.886-0.762zM18.857 27.314l4.152-4.152-0.61-3.009c-0.813 0.584-1.664 1.136-2.552 1.657s-1.791 1.009-2.705 1.467l1.714 4.038zM31.276 0.876c0.229 3.454-0.203 6.603-1.295 9.448s-2.895 5.524-5.41 8.038l-0.152 0.152 0.838 4.191c0.076 0.381 0.057 0.749-0.057 1.105s-0.311 0.673-0.59 0.952l-6.514 6.552-3.238-7.543-6.476-6.476-7.543-3.238 6.552-6.514c0.279-0.279 0.597-0.476 0.952-0.59s0.724-0.133 1.105-0.057l4.19 0.838c0.025-0.025 0.051-0.044 0.076-0.057s0.051-0.032 0.076-0.057c2.514-2.514 5.194-4.324 8.038-5.429s5.994-1.543 9.448-1.314zM3.39 21.905c0.889-0.889 1.975-1.34 3.257-1.352s2.368 0.425 3.257 1.314c0.889 0.889 1.327 1.974 1.314 3.257s-0.463 2.368-1.352 3.257c-0.66 0.66-1.683 1.206-3.067 1.638s-3.46 0.838-6.229 1.219c0.381-2.768 0.781-4.851 1.2-6.248s0.959-2.425 1.619-3.086zM4.99 23.543c-0.356 0.381-0.673 0.978-0.952 1.791s-0.521 1.854-0.724 3.124c1.27-0.203 2.311-0.444 3.124-0.724s1.41-0.597 1.79-0.952c0.483-0.432 0.73-0.971 0.743-1.619s-0.21-1.213-0.667-1.695c-0.483-0.457-1.048-0.679-1.695-0.667s-1.187 0.26-1.619 0.743z">
            </path>
        </symbol>


        <!--------------- Customers Say --------------------->

        <symbol id="icon-star" viewBox="0 0 34 32">
            <path fill="#ffe550" style="fill: var(--color1, #ffe550)"
                d="M15.421 1.037c0.584-1.383 2.575-1.383 3.159 0l3.449 8.164c0.247 0.583 0.804 0.982 1.443 1.032l8.952 0.707c1.517 0.12 2.132 1.983 0.976 2.958l-6.821 5.752c-0.487 0.411-0.7 1.056-0.551 1.67l2.084 8.6c0.353 1.457-1.257 2.609-2.556 1.828l-7.664-4.609c-0.547-0.329-1.236-0.329-1.783 0l-7.664 4.609c-1.299 0.781-2.909-0.371-2.556-1.828l2.084-8.6c0.149-0.614-0.064-1.259-0.551-1.67l-6.821-5.752c-1.156-0.975-0.541-2.838 0.976-2.958l8.952-0.707c0.639-0.050 1.196-0.449 1.443-1.032l3.449-8.164z">
            </path>
        </symbol>

    </defs>
</svg>