<svg aria-hidden="true" style="position: absolute; width: 0; height: 0; overflow: hidden;" version="1.1"
    xmlns="http://www.w3.org/2000/svg" xmlns:xlink="http://www.w3.org/1999/xlink">
    <defs>
        <symbol id="icon-logo" viewBox="0 0 41 32">
            <path fill="#ffe550" style="fill: var(--color1, #ffe550)"
                d="M14.151 6.456c1.011-1.982 3.838-1.982 4.849 0l1.28 2.51c0.396 0.776 1.138 1.316 1.998 1.453l2.774 0.441c2.197 0.35 3.072 3.049 1.498 4.625l-1.979 1.983c-0.616 0.617-0.901 1.493-0.765 2.356l0.437 2.773c0.347 2.2-1.941 3.868-3.923 2.859l-2.512-1.278c-0.775-0.394-1.691-0.394-2.466 0l-2.512 1.278c-1.982 1.009-4.27-0.659-3.923-2.859l0.437-2.773c0.136-0.863-0.148-1.738-0.765-2.356l-1.979-1.983c-1.573-1.576-0.699-4.276 1.498-4.625l2.774-0.441c0.859-0.137 1.602-0.677 1.998-1.453l1.28-2.51z">
            </path>
            <path fill="#2c2c2c" style="fill: var(--color2, #2c2c2c)"
                d="M1.117 20.357l-0.021 0.005c0.003 0.074-0.001 0.374-0.011 0.9-0.003 0.524-0.004 0.868-0.002 1.032-0 0.157-0.004 0.285-0.010 0.384 0.001 0.097 0.001 0.209 0.001 0.336-0.001 0.12-0.008 0.219-0.020 0.296-0.006 0.069-0.012 0.137-0.018 0.206-0.014 0.13-0.042 0.201-0.085 0.211-0.092 0.022-0.235-0.049-0.431-0.212-0.197-0.17-0.311-0.319-0.341-0.447s-0.038-1.060-0.024-2.798c0.021-1.74-0.025-2.884-0.14-3.432-0.025-0.106-0.020-0.197 0.014-0.272 0.035-0.165 0.219-0.321 0.55-0.467 0.338-0.147 0.843-0.3 1.515-0.459 0.679-0.161 1.217-0.251 1.615-0.27 0.405-0.021 0.623 0.032 0.653 0.159 0.020 0.085-0.026 0.159-0.138 0.223s-0.211 0.117-0.298 0.16c-0.089 0.036-0.204 0.082-0.348 0.138-0.145 0.049-0.28 0.096-0.403 0.14-0.126 0.037-0.288 0.091-0.488 0.16-0.193 0.068-0.372 0.133-0.536 0.194-0.166 0.054-0.39 0.133-0.671 0.237s-0.464 0.169-0.547 0.197c0.012 0.020 0.023 0.051 0.033 0.093 0.079 0.333 0.122 1.13 0.129 2.392 0.443-0.082 0.911-0.204 1.402-0.365 0.499-0.163 0.805-0.258 0.918-0.284 0.269-0.064 0.416-0.039 0.443 0.075 0.052 0.22-0.212 0.476-0.792 0.77-0.573 0.292-1.223 0.525-1.951 0.697z">
            </path>
            <path fill="#2c2c2c" style="fill: var(--color2, #2c2c2c)"
                d="M8.037 18.406c-0.057-0.241-0.149-0.458-0.277-0.652-0.13-0.201-0.28-0.334-0.452-0.398-0.456 0.25-0.787 0.728-0.993 1.435-0.201 0.698-0.236 1.32-0.107 1.865s0.344 0.853 0.644 0.924c0.485-0.22 0.834-0.668 1.047-1.347 0.218-0.687 0.264-1.296 0.139-1.827zM5.272 19.161c0.117-0.611 0.331-1.14 0.643-1.588 0.317-0.456 0.685-0.734 1.102-0.833 0.424-0.1 0.82-0.003 1.188 0.291 0.366 0.287 0.611 0.689 0.733 1.206 0.121 0.51 0.121 1.063 0.001 1.66-0.122 0.59-0.36 1.113-0.714 1.571-0.349 0.449-0.767 0.731-1.255 0.846-0.36 0.085-0.7-0.010-1.019-0.286s-0.539-0.669-0.659-1.179c-0.122-0.517-0.129-1.080-0.019-1.689z">
            </path>
            <path fill="#2c2c2c" style="fill: var(--color2, #2c2c2c)"
                d="M12.841 17.269c-0.057-0.241-0.149-0.458-0.277-0.652-0.13-0.201-0.28-0.334-0.452-0.398-0.456 0.25-0.787 0.728-0.993 1.435-0.201 0.698-0.236 1.32-0.107 1.865s0.344 0.853 0.644 0.924c0.485-0.219 0.834-0.668 1.047-1.347 0.218-0.687 0.264-1.296 0.139-1.827zM10.076 18.025c0.117-0.611 0.331-1.14 0.643-1.588 0.317-0.456 0.685-0.734 1.102-0.833 0.424-0.1 0.82-0.003 1.188 0.291 0.366 0.287 0.611 0.689 0.733 1.206 0.121 0.51 0.121 1.063 0.001 1.66-0.122 0.59-0.36 1.113-0.714 1.571-0.349 0.449-0.767 0.731-1.255 0.846-0.36 0.085-0.7-0.010-1.019-0.286s-0.539-0.669-0.659-1.179c-0.122-0.517-0.129-1.080-0.019-1.689z">
            </path>
            <path fill="#2c2c2c" style="fill: var(--color2, #2c2c2c)"
                d="M17.85 11.037c0.113-0.027 0.276 0.047 0.489 0.221 0.218 0.165 0.349 0.34 0.393 0.524s0.079 0.729 0.107 1.635c0.026 0.899 0.031 1.836 0.016 2.811-0.020 2.188-0.111 3.301-0.274 3.34-0.099 0.023-0.223-0.011-0.371-0.103-0.143-0.101-0.226-0.197-0.248-0.289s-0.041-0.282-0.056-0.57c-0.525 0.872-1.046 1.369-1.562 1.491-0.311 0.074-0.627-0.001-0.949-0.224-0.314-0.225-0.508-0.489-0.58-0.794-0.104-0.439-0.11-0.987-0.019-1.644 0.096-0.666 0.308-1.299 0.636-1.9s0.743-0.961 1.245-1.080 0.923 0.099 1.263 0.655c0.005-1.586-0.077-2.819-0.248-3.699-0.050-0.212 0.002-0.337 0.158-0.374zM17.918 16.528c-0.090-0.382-0.234-0.689-0.43-0.919-0.189-0.232-0.376-0.326-0.559-0.283-0.304 0.072-0.57 0.333-0.8 0.784s-0.382 0.943-0.457 1.476c-0.070 0.525-0.063 0.964 0.021 1.319 0.030 0.127 0.1 0.219 0.211 0.275s0.229 0.069 0.356 0.039c0.276-0.065 0.6-0.351 0.972-0.858 0.38-0.509 0.612-1.057 0.697-1.645l0.002-0.135-0.013-0.053z">
            </path>
            <path fill="#2c2c2c" style="fill: var(--color2, #2c2c2c)"
                d="M24.685 15.892c0.137 0.581-0.009 1.131-0.438 1.651-0.431 0.513-0.986 0.85-1.664 1.011-0.671 0.159-1.267 0.117-1.788-0.127-0.522-0.25-0.82-0.531-0.893-0.843-0.050-0.212-0.012-0.334 0.115-0.364 0.113-0.027 0.376 0.091 0.788 0.352 0.156 0.090 0.352 0.163 0.589 0.22 0.244 0.054 0.486 0.053 0.727-0.004 0.495-0.117 0.903-0.348 1.224-0.693 0.328-0.347 0.457-0.669 0.387-0.966-0.045-0.191-0.23-0.405-0.555-0.643s-0.674-0.45-1.047-0.638c-0.368-0.197-0.715-0.418-1.041-0.662s-0.511-0.455-0.552-0.632-0.051-0.373-0.027-0.588c0.024-0.215 0.067-0.379 0.13-0.491 0.204-0.37 0.565-0.751 1.084-1.143 0.526-0.394 0.987-0.637 1.383-0.731 0.205-0.048 0.394-0.022 0.567 0.079s0.277 0.226 0.313 0.375c0.017 0.071-0.044 0.145-0.182 0.223s-0.351 0.188-0.638 0.33c-0.282 0.134-0.528 0.275-0.74 0.422-0.739 0.504-1.074 0.901-1.006 1.191 0.037 0.156 0.553 0.493 1.549 1.013 0.383 0.201 0.746 0.455 1.087 0.763 0.347 0.299 0.556 0.598 0.626 0.895z">
            </path>
            <path fill="#2c2c2c" style="fill: var(--color2, #2c2c2c)"
                d="M27.121 16.426c0.032 0.135 0.125 0.183 0.281 0.147 0.269-0.064 0.576-0.215 0.923-0.454 0.352-0.248 0.549-0.377 0.591-0.387 0.127-0.030 0.207 0.022 0.239 0.157 0.049 0.205-0.107 0.493-0.468 0.862-0.353 0.368-0.703 0.593-1.049 0.674-0.339 0.080-0.644 0.055-0.913-0.076-0.271-0.138-0.43-0.306-0.477-0.504s-0.064-0.46-0.051-0.784c0.011-0.332 0.035-0.767 0.072-1.307 0.042-0.548 0.070-1 0.083-1.354-0.314 0.156-0.527 0.248-0.64 0.275s-0.24-0.003-0.379-0.090c-0.134-0.095-0.214-0.196-0.239-0.302-0.040-0.17 0.381-0.441 1.263-0.815-0.012-0.618-0.071-1.153-0.178-1.607-0.050-0.212-0.005-0.335 0.137-0.369 0.12-0.028 0.287 0.014 0.501 0.128 0.212 0.107 0.34 0.256 0.386 0.447s0.065 0.542 0.058 1.052c0.394-0.131 0.712-0.224 0.952-0.281 0.424-0.1 0.658-0.058 0.701 0.126 0.025 0.106-0.071 0.222-0.287 0.348-0.209 0.124-0.664 0.348-1.364 0.67-0.016 0.594-0.052 1.28-0.107 2.055-0.057 0.769-0.067 1.231-0.030 1.387z">
            </path>
            <path fill="#2c2c2c" style="fill: var(--color2, #2c2c2c)"
                d="M31.858 10.864c0.318-0.075 0.65 0.018 0.995 0.28 0.344 0.255 0.547 0.514 0.609 0.776 0.060 0.255 0.034 0.538-0.079 0.849 0.11 0.086 0.174 0.168 0.193 0.246 0.047 0.198 0.081 0.549 0.103 1.052 0.029 0.502 0.051 0.829 0.065 0.983 0.021 0.152 0.035 0.276 0.043 0.371 0.006 0.088 0.008 0.178 0.007 0.267 0.014 0.184-0.029 0.287-0.128 0.311-0.127 0.030-0.259-0.055-0.396-0.254-0.131-0.208-0.246-0.488-0.344-0.838-0.44 0.949-0.928 1.487-1.465 1.614-0.325 0.077-0.679 0.015-1.063-0.186-0.378-0.21-0.602-0.463-0.672-0.761-0.1-0.425-0.069-0.986 0.095-1.682 0.162-0.704 0.432-1.358 0.812-1.964s0.788-0.96 1.226-1.064zM32.788 12.618c-0.156-0.659-0.364-0.957-0.626-0.895-0.276 0.065-0.55 0.34-0.824 0.823-0.275 0.476-0.482 0.993-0.619 1.548s-0.171 0.979-0.103 1.269c0.028 0.12 0.101 0.208 0.219 0.262 0.116 0.047 0.241 0.055 0.375 0.023 0.332-0.079 0.654-0.39 0.965-0.935 0.31-0.552 0.47-1.169 0.48-1.852-0.004-0.111 0.041-0.189 0.135-0.234l-0.002-0.011z">
            </path>
            <path fill="#bbf330" style="fill: var(--color3, #bbf330)"
                d="M30.777 19.973c-0.303 0.075-0.542 0.306-0.642 0.602-1.907 5.65-7.248 9.719-13.543 9.719-3.817 0-7.284-1.497-9.847-3.935-0.226-0.215-0.544-0.307-0.846-0.232-0.639 0.158-0.881 0.934-0.407 1.392 2.876 2.774 6.788 4.48 11.099 4.48 7.082 0 13.089-4.605 15.192-10.986 0.206-0.626-0.368-1.199-1.007-1.041z">
            </path>
            <path fill="#bbf330" style="fill: var(--color3, #bbf330)"
                d="M1.868 14.15c0.345-0.085 0.602-0.374 0.666-0.725 1.212-6.664 7.044-11.72 14.059-11.72 4.562 0 8.623 2.137 11.239 5.464 0.22 0.279 0.579 0.414 0.924 0.328 0.584-0.144 0.848-0.825 0.479-1.301-2.926-3.771-7.5-6.198-12.641-6.198-7.886 0-14.439 5.711-15.753 13.225-0.104 0.592 0.445 1.070 1.028 0.926z">
            </path>
            <path fill="#bbf330" style="fill: var(--color3, #bbf330)"
                d="M40.64 5.331c-3.779 7.241-5.439 2.465-10.759 5.271 0.532-8.406 6.167-3.291 10.759-5.271z"></path>
        </symbol>
        <symbol id="open-menu" viewBox="0 0 43 32">
            <path
                d="M0.592 3.556c0-0.55 0.219-1.078 0.607-1.467s0.917-0.607 1.467-0.607h37.333c0.55 0 1.078 0.219 1.466 0.607s0.607 0.917 0.607 1.467c0 0.55-0.218 1.078-0.607 1.467s-0.916 0.607-1.466 0.607h-37.333c-0.55 0-1.078-0.219-1.467-0.607s-0.607-0.917-0.607-1.467zM0.592 16.066c0-0.55 0.219-1.078 0.607-1.467s0.917-0.607 1.467-0.607h37.333c0.55 0 1.078 0.219 1.466 0.607s0.607 0.916 0.607 1.467c0 0.55-0.218 1.078-0.607 1.467s-0.916 0.607-1.466 0.607h-37.333c-0.55 0-1.078-0.218-1.467-0.607s-0.607-0.916-0.607-1.467zM2.666 26.503c-0.55 0-1.078 0.219-1.467 0.607s-0.607 0.917-0.607 1.467 0.219 1.078 0.607 1.467c0.389 0.389 0.917 0.607 1.467 0.607h37.333c0.55 0 1.078-0.218 1.467-0.607s0.607-0.917 0.607-1.467c0-0.55-0.218-1.078-0.607-1.467s-0.916-0.607-1.466-0.607h-37.333z">
            </path>
        </symbol>
        <symbol id="close-menu" viewBox="0 0 32 32">
            <path
                d="M19.141 16.123l10.676-10.668c0.36-0.42 0.548-0.96 0.527-1.513s-0.251-1.077-0.642-1.467c-0.391-0.391-0.915-0.62-1.469-0.641s-1.093 0.167-1.514 0.526l-10.676 10.558-10.742-10.734c-0.42-0.36-0.961-0.548-1.514-0.526s-1.077 0.25-1.469 0.641c-0.391 0.391-0.62 0.915-0.642 1.467s0.167 1.093 0.527 1.513l10.72 10.844-10.501 10.361c-0.23 0.197-0.417 0.439-0.549 0.711s-0.206 0.569-0.218 0.871 0.039 0.604 0.15 0.885c0.11 0.282 0.278 0.538 0.492 0.751s0.47 0.381 0.752 0.492c0.282 0.11 0.584 0.161 0.886 0.15s0.599-0.086 0.872-0.217c0.273-0.132 0.515-0.318 0.712-0.548l10.479-10.471 10.413 10.405c0.42 0.359 0.961 0.547 1.514 0.526s1.077-0.25 1.469-0.641c0.391-0.391 0.621-0.915 0.642-1.467s-0.167-1.093-0.527-1.512l-10.369-10.295z">
            </path>
        </symbol>
        <symbol id="icon-click" viewBox="0 0 24 32">
            <path fill="#7eb101" style="fill: var(--color4, #7eb101)"
                d="M11.586 0.368c2.231 0 4.138 0.779 5.72 2.336s2.372 3.451 2.372 5.683c0 1.275-0.276 2.477-0.828 3.605s-1.33 2.084-2.336 2.869h-1.251v-1.839c0.711-0.564 1.257-1.251 1.637-2.060s0.57-1.667 0.57-2.575c0-1.618-0.576-2.992-1.729-4.12s-2.538-1.692-4.156-1.692c-1.618 0-3.004 0.564-4.156 1.692s-1.729 2.501-1.729 4.12c0 0.907 0.19 1.766 0.57 2.575s0.926 1.496 1.637 2.060v2.648c-1.373-0.711-2.452-1.717-3.237-3.016s-1.177-2.722-1.177-4.267c0-2.231 0.791-4.126 2.372-5.683s3.488-2.336 5.72-2.336zM10.189 31.264c-0.417 0-0.809-0.080-1.177-0.239s-0.687-0.374-0.956-0.644l-7.577-7.577 2.060-2.133c0.343-0.343 0.73-0.607 1.159-0.791s0.877-0.215 1.343-0.092l2.869 0.662v-11.991c0-1.030 0.356-1.9 1.067-2.611s1.582-1.067 2.611-1.067c1.030 0 1.9 0.356 2.612 1.067s1.067 1.582 1.067 2.611v6.326h0.956c0.123 0 0.233 0.024 0.331 0.073s0.208 0.098 0.331 0.147l5.444 2.648c0.589 0.27 1.024 0.705 1.306 1.306s0.362 1.22 0.239 1.857l-1.324 8.018c-0.123 0.711-0.466 1.293-1.030 1.747s-1.202 0.68-1.913 0.68h-9.416zM9.894 29.057h10.336l1.582-9.159-6.731-3.347h-2.023v-8.092c0-0.441-0.135-0.797-0.405-1.067s-0.625-0.405-1.067-0.405-0.797 0.135-1.067 0.405c-0.27 0.27-0.405 0.625-0.405 1.067v14.676l-5.664-1.214-0.846 0.846 6.29 6.29zM20.23 29.057v0z">
            </path>
        </symbol>
        <symbol id="icon-rocket" viewBox="0 0 32 32">
            <path fill="#7eb101" style="fill: var(--color4, #7eb101)"
                d="M4.838 13.295l4.038 1.714c0.457-0.914 0.946-1.816 1.467-2.705s1.073-1.74 1.657-2.552l-3.010-0.61-4.152 4.152zM10.705 16.381l5.067 5.067c1.448-0.66 2.806-1.41 4.076-2.248s2.298-1.651 3.086-2.438c2.057-2.057 3.568-4.165 4.533-6.324s1.486-4.597 1.562-7.314c-2.718 0.076-5.156 0.597-7.314 1.562s-4.267 2.476-6.324 4.533c-0.787 0.787-1.6 1.816-2.438 3.086s-1.587 2.629-2.248 4.076zM19.429 12.724c-0.508-0.508-0.762-1.137-0.762-1.886s0.254-1.378 0.762-1.886 1.136-0.762 1.886-0.762c0.749 0 1.378 0.254 1.886 0.762s0.762 1.136 0.762 1.886c0 0.749-0.254 1.378-0.762 1.886s-1.136 0.762-1.886 0.762-1.378-0.254-1.886-0.762zM18.857 27.314l4.152-4.152-0.61-3.009c-0.813 0.584-1.664 1.136-2.552 1.657s-1.791 1.009-2.705 1.467l1.714 4.038zM31.276 0.876c0.229 3.454-0.203 6.603-1.295 9.448s-2.895 5.524-5.41 8.038l-0.152 0.152 0.838 4.191c0.076 0.381 0.057 0.749-0.057 1.105s-0.311 0.673-0.59 0.952l-6.514 6.552-3.238-7.543-6.476-6.476-7.543-3.238 6.552-6.514c0.279-0.279 0.597-0.476 0.952-0.59s0.724-0.133 1.105-0.057l4.19 0.838c0.025-0.025 0.051-0.044 0.076-0.057s0.051-0.032 0.076-0.057c2.514-2.514 5.194-4.324 8.038-5.429s5.994-1.543 9.448-1.314zM3.39 21.905c0.889-0.889 1.975-1.34 3.257-1.352s2.368 0.425 3.257 1.314c0.889 0.889 1.327 1.974 1.314 3.257s-0.463 2.368-1.352 3.257c-0.66 0.66-1.683 1.206-3.067 1.638s-3.46 0.838-6.229 1.219c0.381-2.768 0.781-4.851 1.2-6.248s0.959-2.425 1.619-3.086zM4.99 23.543c-0.356 0.381-0.673 0.978-0.952 1.791s-0.521 1.854-0.724 3.124c1.27-0.203 2.311-0.444 3.124-0.724s1.41-0.597 1.79-0.952c0.483-0.432 0.73-0.971 0.743-1.619s-0.21-1.213-0.667-1.695c-0.483-0.457-1.048-0.679-1.695-0.667s-1.187 0.26-1.619 0.743z">
            </path>
        </symbol>
        <symbol id="icon-star" viewBox="0 0 34 32">
            <path fill="#ffe550" style="fill: var(--color1, #ffe550)"
                d="M15.421 1.037c0.584-1.383 2.575-1.383 3.159 0l3.449 8.164c0.247 0.583 0.804 0.982 1.443 1.032l8.952 0.707c1.517 0.12 2.132 1.983 0.976 2.958l-6.821 5.752c-0.487 0.411-0.7 1.056-0.551 1.67l2.084 8.6c0.353 1.457-1.257 2.609-2.556 1.828l-7.664-4.609c-0.547-0.329-1.236-0.329-1.783 0l-7.664 4.609c-1.299 0.781-2.909-0.371-2.556-1.828l2.084-8.6c0.149-0.614-0.064-1.259-0.551-1.67l-6.821-5.752c-1.156-0.975-0.541-2.838 0.976-2.958l8.952-0.707c0.639-0.050 1.196-0.449 1.443-1.032l3.449-8.164z">
            </path>
        </symbol>
        <symbol id="icon-read-more" viewBox="0 0 34 32">
            <path d="M21.931 15.709c0.353 0.353 0.353 0.924 0 1.277l-9.206 9.206c-0.353 0.353-0.924 0.353-1.277 0l-0.426-0.426c-0.353-0.353-0.353-0.924 0-1.277l8.142-8.142-8.142-8.142c-0.353-0.353-0.353-0.924 0-1.277l0.426-0.426c0.353-0.353 0.924-0.353 1.277 0l9.206 9.206z"></path>
        </symbol>
        <symbol id="icon-arrow-r" viewBox="0 0 38 32">
            <path fill="#fefefe" style="fill: var(--color1, #fefefe)"
                d="M38.4 6.4v19.2c0 3.535-2.865 6.4-6.4 6.4h-25.6c-3.535 0-6.4-2.865-6.4-6.4v-19.2c0-3.535 2.865-6.4 6.4-6.4h25.6c3.535 0 6.4 2.865 6.4 6.4z">
            </path>
            <path
                d="M27.64 15.276l-11.146-10.62c-0.186-0.177-0.433-0.276-0.69-0.276s-0.504 0.099-0.69 0.276l-0.012 0.012c-0.090 0.086-0.162 0.189-0.212 0.304s-0.075 0.238-0.075 0.363 0.025 0.248 0.075 0.363c0.049 0.115 0.121 0.218 0.212 0.304l10.496 10-10.496 9.996c-0.090 0.086-0.162 0.189-0.212 0.304s-0.075 0.238-0.075 0.363 0.025 0.248 0.075 0.363c0.049 0.115 0.121 0.218 0.212 0.304l0.012 0.012c0.186 0.177 0.433 0.276 0.69 0.276s0.504-0.099 0.69-0.276l11.146-10.62c0.098-0.093 0.176-0.206 0.229-0.33s0.081-0.258 0.081-0.394c0-0.135-0.028-0.269-0.081-0.394s-0.131-0.237-0.229-0.33z">
            </path>
        </symbol>
        <symbol id="icon-arrow-l" viewBox="0 0 38 32">
            <path fill="#fefefe" style="fill: var(--color1, #fefefe)"
                d="M0 25.6v-19.2c0-3.535 2.865-6.4 6.4-6.4h25.6c3.535 0 6.4 2.865 6.4 6.4v19.2c0 3.535-2.865 6.4-6.4 6.4h-25.6c-3.535 0-6.4-2.865-6.4-6.4z">
            </path>
            <path
                d="M10.76 16.724l11.146 10.62c0.186 0.177 0.433 0.276 0.69 0.276s0.504-0.099 0.69-0.276l0.012-0.012c0.090-0.086 0.162-0.189 0.212-0.304s0.075-0.238 0.075-0.363-0.025-0.248-0.075-0.363c-0.049-0.115-0.121-0.218-0.212-0.304l-10.496-10 10.496-9.996c0.090-0.086 0.162-0.189 0.212-0.304s0.075-0.238 0.075-0.363-0.025-0.248-0.075-0.363c-0.049-0.115-0.121-0.218-0.212-0.304l-0.012-0.012c-0.186-0.177-0.433-0.276-0.69-0.276s-0.504 0.099-0.69 0.276l-11.146 10.62c-0.098 0.093-0.176 0.206-0.229 0.33s-0.081 0.258-0.081 0.394c0 0.135 0.028 0.269 0.081 0.394s0.131 0.237 0.229 0.33z">
            </path>
        </symbol>
        <symbol id="icon-up" viewBox="0 0 20 32">
            <path
                d="m10.186 5.414-6.361 6.361A2.243 2.243 0 1 1 .653 8.603L8.726.538l.087-.071L8.9.404l.095-.063.095-.055.11-.055.087-.039.205-.079.095-.032.055-.016.103-.024.11-.016.103-.016.11-.008h.221l.11.008.103.016.11.016.103.024.118.032.095.032.189.079.118.055.079.047.189.126.174.142.079.071 7.947 7.955a2.243 2.243 0 1 1-3.172 3.172L10.17 5.415z" />
            <path
                d="M10.186 15.199 3.825 21.56a2.243 2.243 0 1 1-3.172-3.172l8.073-8.065.087-.071.087-.063.095-.063.095-.055.11-.055.087-.039.205-.079.095-.032.055-.016.103-.024.11-.016.103-.016.11-.008h.221l.11.008.103.016.11.016.103.024.118.032.095.032.189.079.118.055.079.047.189.126.174.142.079.071 7.947 7.955a2.243 2.243 0 1 1-3.172 3.172L10.17 15.2z" />
            <path
                d="m10.186 24.984-6.361 6.361a2.243 2.243 0 1 1-3.172-3.172l8.073-8.065.087-.071.087-.063.095-.063.095-.055.11-.055.087-.039.205-.079.095-.032.055-.016.103-.024.11-.016.103-.016.11-.008h.221l.11.008.103.016.11.016.103.024.118.032.095.032.189.079.118.055.079.047.189.126.174.142.079.071 7.947 7.955a2.243 2.243 0 1 1-3.172 3.172l-6.361-6.361z" />
        </symbol>
        <symbol id="close" viewBox="0 0 24 26">
            <path
                d="m13.178 12.046 4.004-4a.823.823 0 0 0-1.162-1.161l-4.003 3.96-4.029-4.026a.824.824 0 0 0-1.161 1.16l4.02 4.067-3.938 3.885a.823.823 0 1 0 1.162 1.161L12 13.166l3.905 3.901a.824.824 0 0 0 1.161-1.16l-3.888-3.86Z"
                fill="#2C2C2C" />
            </g>
            </g>
            <defs>
                <filter id="a" width="32" height="32" x="-4" y="0" color-interpolation-filters="sRGB"
                    filterUnits="userSpaceOnUse">
                    <feFlood flood-opacity="0" result="BackgroundImageFix" />
                    <feColorMatrix in="SourceAlpha" result="hardAlpha" type="matrix"
                        values="0 0 0 0 0 0 0 0 0 0 0 0 0 0 0 0 0 0 127 0" />
                    <feOffset dy="4" />
                    <feGaussianBlur stdDeviation="2" />
                    <feComposite in2="hardAlpha" operator="out" />
                    <feColorMatrix type="matrix" values="0 0 0 0 0 0 0 0 0 0 0 0 0 0 0 0 0 0 0.06 0" />
                    <feBlend in2="BackgroundImageFix" mode="normal" result="effect1_dropShadow_3909_6" />
                    <feBlend in="SourceGraphic" in2="effect1_dropShadow_3909_6" mode="normal" result="shape" />
                </filter>
                <filter id="b" width="12.759" height="11.759" x="6.621" y="6.621" color-interpolation-filters="sRGB"
                    filterUnits="userSpaceOnUse">
                    <feFlood flood-opacity="0" result="BackgroundImageFix" />
                    <feBlend in="SourceGraphic" in2="BackgroundImageFix" mode="normal" result="shape" />
                    <feColorMatrix in="SourceAlpha" result="hardAlpha" type="matrix"
                        values="0 0 0 0 0 0 0 0 0 0 0 0 0 0 0 0 0 0 127 0" />
                    <feOffset dx="2" dy="1" />
                    <feGaussianBlur stdDeviation="2" />
                    <feComposite in2="hardAlpha" k2="-1" k3="1" operator="arithmetic" />
                    <feColorMatrix type="matrix"
                        values="0 0 0 0 0.239216 0 0 0 0 0.239216 0 0 0 0 0.239216 0 0 0 0.1 0">
                        >>>>>>> main
                        </path>
        </symbol>
        <symbol id="icon-warning" viewBox="0 0 32 32">
            <path fill="none" stroke="#ff705d" style="stroke: var(--color1, #ff705d)" stroke-linejoin="round"
                stroke-linecap="round" stroke-miterlimit="4" stroke-width="2.2857" d="M16 11.429v6.857"></path>
            <path fill="none" stroke="#ff705d" style="stroke: var(--color1, #ff705d)" stroke-linejoin="round"
                stroke-linecap="round" stroke-miterlimit="4" stroke-width="2.2857"
                d="M16.002 26.286c0.631 0 1.143-0.512 1.143-1.143s-0.512-1.143-1.143-1.143c-0.631 0-1.143 0.512-1.143 1.143s0.512 1.143 1.143 1.143z">
            </path>
            <path fill="none" stroke="#ff705d" style="stroke: var(--color1, #ff705d)" stroke-linejoin="round"
                stroke-linecap="round" stroke-miterlimit="4" stroke-width="2.2857"
                d="M18.036 2.4c-0.192-0.374-0.483-0.689-0.842-0.908s-0.771-0.336-1.192-0.336c-0.421 0-0.833 0.116-1.192 0.336s-0.65 0.534-0.842 0.908l-12.571 25.143c-0.175 0.348-0.259 0.735-0.242 1.124s0.132 0.768 0.336 1.1c0.204 0.332 0.489 0.606 0.829 0.797s0.723 0.291 1.112 0.293h25.143c0.39-0.001 0.772-0.102 1.112-0.293s0.625-0.465 0.829-0.797c0.204-0.332 0.319-0.711 0.336-1.1s-0.067-0.776-0.243-1.124l-12.571-25.143z">
            </path>
        </symbol>
        <symbol id="icon-cart" viewBox="0 0 32 32">
            <path d="M12 29c0 1.657-1.343 3-3 3s-3-1.343-3-3c0-1.657 1.343-3 3-3s3 1.343 3 3z"></path>
            <path d="M32 29c0 1.657-1.343 3-3 3s-3-1.343-3-3c0-1.657 1.343-3 3-3s3 1.343 3 3z"></path>
            <path
                d="M32 16v-12h-24c0-1.105-0.895-2-2-2h-6v2h4l1.502 12.877c-0.915 0.733-1.502 1.859-1.502 3.123 0 2.209 1.791 4 4 4h24v-2h-24c-1.105 0-2-0.895-2-2 0-0.007 0-0.014 0-0.020l26-3.98z">
            </path>
        </symbol>

    </defs>
</svg>